HIERARCHY
ROOT Hips
{
	OFFSET 0.000000 0.000000 0.000000 
	CHANNELS 6 Xposition Yposition Zposition Zrotation Yrotation Xrotation
	JOINT LeftUpLeg
	{
		OFFSET 1.363060 -1.794630 0.839290 
		CHANNELS 3 Zrotation Yrotation Xrotation
		JOINT LeftLeg
		{
			OFFSET 2.448110 -6.726130 0.000000 
			CHANNELS 3 Zrotation Yrotation Xrotation
			JOINT LeftFoot
			{
				OFFSET 2.562200 -7.039590 0.000000 
				CHANNELS 3 Zrotation Yrotation Xrotation
				JOINT LeftToeBase
				{
					OFFSET 0.157640 -0.433110 2.322550 
					CHANNELS 3 Zrotation Yrotation Xrotation
					End Site
					{
						OFFSET 0.000000 0.000000 0.000000 
					}
				}
			}
		}
	}
	JOINT RightUpLeg
	{
		OFFSET -1.305520 -1.794630 0.839290 
		CHANNELS 3 Zrotation Yrotation Xrotation
		JOINT RightLeg
		{
			OFFSET -2.542530 -6.985550 0.000000 
			CHANNELS 3 Zrotation Yrotation Xrotation
			JOINT RightFoot
			{
				OFFSET -2.568260 -7.056230 0.000000 
				CHANNELS 3 Zrotation Yrotation Xrotation
				JOINT RightToeBase
				{
					OFFSET -0.164730 -0.452590 2.363150 
					CHANNELS 3 Zrotation Yrotation Xrotation
					End Site
					{
						OFFSET 0.000000 0.000000 0.000000 
					}
				}
			}
		}
	}
	JOINT Spine
	{
		OFFSET 0.028270 2.035590 -0.193380 
		CHANNELS 3 Zrotation Yrotation Xrotation
		JOINT Spine1
		{
			OFFSET 0.056720 2.048850 -0.042750 
			CHANNELS 3 Zrotation Yrotation Xrotation
			JOINT Neck1
			{
				OFFSET -0.054170 1.746240 0.172020 
				CHANNELS 3 Zrotation Yrotation Xrotation
				JOINT Head
				{
					OFFSET 0.104070 1.761360 -0.123970 
					CHANNELS 3 Zrotation Yrotation Xrotation
					End Site
					{
						OFFSET 0.000000 0.000000 0.000000 
					}
				}
			}
			JOINT LeftArm
			{
				OFFSET 3.362410 1.200890 -0.311210 
				CHANNELS 3 Zrotation Yrotation Xrotation
				JOINT LeftForeArm
				{
					OFFSET 4.983000 -0.000000 -0.000000 
					CHANNELS 3 Zrotation Yrotation Xrotation
					JOINT LeftHand
					{
						OFFSET 3.483560 -0.000000 -0.000000 
						CHANNELS 3 Zrotation Yrotation Xrotation
						JOINT LeftHandIndex1
						{
							OFFSET 0.715260 -0.000000 -0.000000 
							CHANNELS 3 Zrotation Yrotation Xrotation
							End Site
							{
								OFFSET 0.000000 0.000000 0.000000 
							}
						}
					}
				}
			}
			JOINT RightArm
			{
				OFFSET -3.136600 1.374050 -0.404650 
				CHANNELS 3 Zrotation Yrotation Xrotation
				JOINT RightForeArm
				{
					OFFSET -5.241900 -0.000000 -0.000000 
					CHANNELS 3 Zrotation Yrotation Xrotation
					JOINT RightHand
					{
						OFFSET -3.444170 -0.000000 -0.000000 
						CHANNELS 3 Zrotation Yrotation Xrotation
						JOINT RightHandIndex1
						{
							OFFSET -0.622530 -0.000000 -0.000000 
							CHANNELS 3 Zrotation Yrotation Xrotation
							End Site
							{
								OFFSET 0.000000 0.000000 0.000000 
							}
						}
					}
				}
			}
		}
	}
}
MOTION
Frames: 15
Frame Time: 0.041667
-7.145712 17.813175 2.087154 -65.343008 88.910344 -48.592524 -3.545259 0.652176 -28.710296 0.638181 9.241980 26.129998 1.039839 -2.264178 2.688863 1.689800 -8.187700 -23.285700 1.182935 3.998250 -29.841625 -2.259296 -9.899536 28.753535 1.278369 -7.201752 -1.263735 -0.289200 3.458300 -9.557500 3.256783 1.719980 1.548912 5.184336 0.659622 0.468308 0.732755 -2.200711 33.535108 -1.782200 0.556600 17.694200 -106.879124 -18.358725 79.940775 12.597846 -22.590215 -1.410087 0.053388 0.960498 -43.008013 -7.125000 0.000000 0.000000 104.552659 22.217028 36.445975 -8.832587 17.248176 -1.264224 -0.356570 -0.002887 -32.406381 7.125000 0.000000 0.000000 
-7.146116 17.812771 2.084427 -65.296316 88.932522 -48.571413 -3.583559 0.666855 -28.689133 0.650618 9.263954 26.207000 1.055883 -2.356148 2.917271 1.408900 -7.507800 -21.228600 1.152275 3.977215 -29.825542 -2.261951 -9.905882 28.772243 1.261993 -7.130535 -1.294122 -0.270500 3.345600 -9.242600 3.255829 1.706159 1.554809 5.194746 0.652501 0.445794 0.763822 -2.211561 33.496954 -1.756200 0.541800 17.664200 -106.898026 -18.354848 79.867042 12.595807 -22.588611 -1.412027 0.057269 0.961167 -43.062754 -7.125000 0.000000 0.000000 104.544294 22.194078 36.646975 -8.841163 17.256257 -1.263537 -0.359247 0.001735 -32.477194 7.125000 0.000000 0.000000 
-7.146419 17.812367 2.081599 -64.531217 88.994396 -47.818731 -3.653508 0.648622 -28.691224 0.658055 9.277418 26.261433 1.073947 -2.449634 2.881128 1.380800 -7.435700 -21.012700 1.081420 3.900573 -29.832617 -2.260829 -9.909491 28.769809 1.247701 -7.070929 -1.294831 -0.270400 3.345200 -9.241500 3.227020 1.679307 1.568030 5.215854 0.635015 0.444275 0.840326 -2.242687 33.500207 -1.706300 0.523800 17.667200 -106.888925 -18.348768 79.780898 12.577246 -22.557646 -1.402587 0.056985 0.961712 -42.929405 -7.125000 0.000000 0.000000 104.592023 22.220202 36.646787 -8.815308 17.209558 -1.254735 -0.360128 0.005451 -32.514992 7.125000 0.000000 0.000000 
-7.146823 17.813074 2.079882 -65.880976 88.919867 -49.143755 -3.569785 0.682294 -28.748227 0.667468 9.295363 26.293666 1.086939 -2.497131 2.908470 1.414900 -7.522900 -21.274200 1.210403 3.869461 -29.888507 -2.263708 -9.902711 28.778041 1.253189 -7.089027 -1.307892 -0.269500 3.339300 -9.224800 3.270227 1.673251 1.571378 5.195913 0.635273 0.467556 0.882709 -2.226923 33.509982 -1.670400 0.523600 17.678600 -106.933212 -18.374886 79.670778 12.540341 -22.494748 -1.384561 0.056574 0.961133 -42.763078 -7.125000 0.000000 0.000000 104.596115 22.211407 36.822176 -8.830308 17.232115 -1.257562 -0.361127 0.007932 -32.733519 7.125000 0.000000 0.000000 
-7.147025 17.813175 2.078064 -68.290213 88.815600 -51.545909 -3.437007 0.682737 -28.788140 0.673381 9.314136 26.306234 1.080289 -2.449349 2.932047 1.487300 -7.704700 -21.820800 1.403385 3.820166 -29.926691 -2.265977 -9.889755 28.787159 1.241150 -7.026118 -1.377142 -0.183600 2.759900 -7.611100 3.322965 1.676800 1.579215 5.151074 0.644968 0.487751 0.905127 -2.192978 33.502805 -1.652900 0.537200 17.675200 -106.936422 -18.408415 79.681562 12.518118 -22.457898 -1.374142 0.053627 0.961862 -42.816056 -7.125000 0.000000 0.000000 104.508182 22.139419 37.284333 -8.925620 17.394322 -1.283828 -0.363855 0.002708 -33.293885 7.125000 0.000000 0.000000 
-7.147126 17.811054 2.076650 -69.154706 88.780565 -52.401238 -3.407671 0.709837 -28.827289 0.678803 9.327109 26.329872 1.086514 -2.472682 2.940672 1.448100 -7.607000 -21.526700 1.476106 3.769356 -29.948912 -2.264427 -9.881300 28.778977 1.230318 -6.974845 -1.398304 -0.129700 2.321700 -6.395600 3.323817 1.694348 1.580045 5.121450 0.655788 0.495218 0.954387 -2.188322 33.508753 -1.625600 0.543500 17.680400 -106.888671 -18.427951 79.873614 12.526824 -22.475750 -1.380296 0.052501 0.963509 -42.992707 -7.125000 0.000000 0.000000 104.518637 22.157960 37.126327 -8.910386 17.369101 -1.279927 -0.363288 0.002985 -33.291884 7.125000 0.000000 0.000000 
-7.147631 17.809943 2.075438 -69.199686 88.746108 -52.422925 -3.390637 0.748747 -28.862851 0.685246 9.335103 26.353224 1.094878 -2.506757 2.934317 1.398700 -7.481500 -21.150100 1.491221 3.835723 -29.943220 -2.261550 -9.875550 28.760363 1.248292 -7.053243 -1.382069 -0.130800 2.331100 -6.421500 3.324219 1.735274 1.535163 5.102923 0.676334 0.453332 0.990715 -2.181520 33.534710 -1.600200 0.549100 17.689700 -106.856829 -18.395707 80.099954 12.545339 -22.509574 -1.389823 0.051969 0.964186 -42.996225 -7.125000 0.000000 0.000000 104.651743 22.248320 36.243039 -8.764549 17.119017 -1.239313 -0.359590 0.012053 -32.514968 7.125000 0.000000 0.000000 
-7.147732 17.811256 2.074529 -69.262820 88.731935 -52.483940 -3.374136 0.739188 -28.858395 0.689662 9.342602 26.373015 1.094820 -2.504829 2.895538 1.390900 -7.461500 -21.090100 1.483269 3.914681 -29.901974 -2.257636 -9.870329 28.740645 1.264879 -7.124879 -1.412650 -0.131400 2.336300 -6.435900 3.376888 1.742531 1.469369 5.162819 0.682981 0.369959 0.954982 -2.111235 33.535091 -1.604100 0.571500 17.673200 -106.890066 -18.329301 80.033570 12.518332 -22.466899 -1.379158 0.058048 0.962982 -42.757863 -7.125000 0.000000 0.000000 104.722257 22.235143 35.703925 -8.690110 16.991519 -1.218769 -0.357355 0.017032 -31.983321 7.125000 0.000000 0.000000 
-7.148035 17.811559 2.073620 -69.933338 88.679497 -53.157215 -3.315409 0.738667 -28.858041 0.693580 9.350002 26.381774 1.095108 -2.496536 2.859522 1.395300 -7.472800 -21.124000 1.542381 3.938041 -29.876307 -2.251870 -9.858114 28.712872 1.261418 -7.107329 -1.422596 -0.124500 2.274200 -6.264000 3.469665 1.724875 1.452335 5.233264 0.678697 0.340114 0.889593 -2.040274 33.529114 -1.623400 0.587700 17.673100 -106.968150 -18.322206 79.810269 12.476672 -22.396823 -1.361144 0.064588 0.961018 -42.505060 -7.125000 0.000000 0.000000 104.726795 22.214806 35.604880 -8.682829 16.983259 -1.218210 -0.355920 0.015336 -31.797162 7.125000 0.000000 0.000000 
-7.148035 17.811559 2.071701 -70.327088 88.616212 -53.553808 -3.265838 0.765534 -28.868009 0.697647 9.354362 26.387280 1.094442 -2.484192 2.823707 1.436600 -7.577900 -21.439200 1.607700 3.956228 -29.855718 -2.243515 -9.843330 28.671666 1.262028 -7.108796 -1.395338 -0.121500 2.246800 -6.188200 3.515601 1.729374 1.472376 5.240751 0.682400 0.358591 0.871462 -2.037185 33.527458 -1.630900 0.584200 17.681900 -106.977110 -18.355362 79.825239 12.486013 -22.410313 -1.363778 0.061296 0.961292 -42.545688 -7.125000 0.000000 0.000000 104.731993 22.239878 35.561865 -8.680852 16.983095 -1.218898 -0.354919 0.013768 -31.665650 7.125000 0.000000 0.000000 
-7.146924 17.814286 2.070388 -69.376494 88.637859 -52.604778 -3.316108 0.786439 -28.867571 0.700273 9.353280 26.404005 1.105435 -2.540740 2.814791 1.409500 -7.509200 -21.232900 1.549260 3.995693 -29.819930 -2.233340 -9.834860 28.620602 1.286234 -7.217403 -1.400108 -0.142000 2.429000 -6.692800 3.543758 1.742147 1.530466 5.313724 0.685238 0.428793 0.837052 -2.012866 33.454235 -1.648500 0.586400 17.636500 -106.984806 -18.424843 79.933849 12.505423 -22.441468 -1.372607 0.059669 0.961364 -42.702318 -7.125000 0.000000 0.000000 104.712141 22.302630 35.547068 -8.686404 16.992264 -1.219637 -0.356504 0.013674 -31.616890 7.125000 0.000000 0.000000 
-7.146015 17.816710 2.068166 -69.526553 88.665108 -52.759788 -3.339355 0.783448 -28.879455 0.701028 9.357411 26.417715 1.128846 -2.649416 2.844383 1.339100 -7.327100 -20.688100 1.506881 4.016821 -29.769715 -2.225507 -9.821660 28.574775 1.307975 -7.310644 -1.426318 -0.169500 2.652000 -7.311400 3.597893 1.730284 1.627065 5.390308 0.678309 0.542612 0.803895 -1.945317 33.373036 -1.654300 0.598100 17.602000 -107.030167 -18.543442 80.022300 12.518717 -22.459928 -1.377545 0.058258 0.960314 -42.746465 -7.125000 0.000000 0.000000 104.705620 22.423907 35.478660 -8.677179 16.981062 -1.218201 -0.356193 0.011540 -31.497255 7.125000 0.000000 0.000000 
-7.146116 17.814993 2.063621 -71.999270 88.576194 -55.251045 -3.241375 0.813717 -28.909168 0.702987 9.372949 26.417408 1.123687 -2.605715 2.824089 1.446200 -7.602200 -21.512100 1.633328 4.002531 -29.716260 -2.221842 -9.799188 28.544775 1.306668 -7.296536 -1.397563 -0.178500 2.721300 -7.503700 3.702451 1.690542 1.667735 5.381968 0.666984 0.583612 0.834973 -1.866123 33.389105 -1.607900 0.614000 17.631500 -107.082158 -18.602230 80.070124 12.523552 -22.463964 -1.377739 0.055197 0.959772 -42.675653 -7.125000 0.000000 0.000000 104.669351 22.448409 35.572980 -8.693024 17.015165 -1.225401 -0.354253 0.006911 -31.525256 7.125000 0.000000 0.000000 
-7.146116 17.812569 2.060389 -73.568618 88.460217 -56.829774 -3.139996 0.853055 -28.921933 0.707243 9.383744 26.416786 1.094626 -2.459793 2.817745 1.571500 -7.909800 -22.440500 1.777121 3.990024 -29.693116 -2.218385 -9.783133 28.521080 1.307845 -7.297522 -1.334619 -0.174600 2.691600 -7.421200 3.771080 1.679195 1.677953 5.345160 0.668003 0.595234 0.850641 -1.836616 33.399226 -1.587300 0.620200 17.640800 -107.073696 -18.624370 80.167826 12.538189 -22.489213 -1.384783 0.054870 0.960721 -42.649087 -7.125000 0.000000 0.000000 104.599401 22.396578 35.918452 -8.767909 17.146485 -1.247035 -0.355699 0.000134 -31.948290 7.125000 0.000000 0.000000 
-7.145712 17.812670 2.059177 -73.939723 88.427852 -57.189937 -3.109330 0.859112 -28.931418 0.708392 9.385871 26.416590 1.087043 -2.424557 2.864582 1.566100 -7.896900 -22.401400 1.811646 4.021409 -29.677980 -2.214620 -9.774746 28.498937 1.326842 -7.377824 -1.359285 -0.153400 2.523800 -6.955700 3.739762 1.706764 1.705847 5.289866 0.681930 0.639013 0.867900 -1.889788 33.387038 -1.594700 0.607800 17.634100 -107.010797 -18.664795 80.294057 12.556088 -22.521324 -1.392598 0.053920 0.962377 -42.592894 -7.125000 0.000000 0.000000 104.599051 22.399231 36.114136 -8.832427 17.255371 -1.263685 -0.359414 -0.003459 -32.359243 7.125000 0.000000 0.000000 
